<svg xmlns="http://www.w3.org/2000/svg" width="353.44" height="110.288" viewBox="0 0 353.44 110.288">
  <g id="Group_12" data-name="Group 12" transform="translate(-72.77 -600)">
    <g id="Group_1" data-name="Group 1" transform="translate(-751.774 69.042)">
      <rect id="Rectangle_4" data-name="Rectangle 4" width="31.194" height="31.194" transform="translate(868.659 553.016) rotate(45)" fill="#1a8e5f" opacity="0.6"/>
      <path id="Rectangle_11" data-name="Rectangle 11" d="M0,0H31.194V31.194H4a4,4,0,0,1-4-4Z" transform="translate(846.602 575.073) rotate(45)" fill="#1a8e5f" opacity="0.8"/>
      <rect id="Rectangle_7" data-name="Rectangle 7" width="31.194" height="31.194" transform="translate(912.774 553.016) rotate(45)" fill="#1a8e5f" opacity="0.6"/>
      <rect id="Rectangle_9" data-name="Rectangle 9" width="31.194" height="31.194" transform="translate(890.716 575.073) rotate(45)" fill="#1a8e5f" opacity="0.8"/>
      <path id="Rectangle_13" data-name="Rectangle 13" d="M0,0H31.194V27.194a4,4,0,0,1-4,4H0Z" transform="translate(912.774 597.131) rotate(45)" fill="#1a8e5f"/>
      <path id="Rectangle_14" data-name="Rectangle 14" d="M0,0H31.194V27.194a4,4,0,0,1-4,4H0Z" transform="translate(868.659 597.131) rotate(45)" fill="#1a8e5f"/>
      <path id="Rectangle_15" data-name="Rectangle 15" d="M0,0H31.194V27.194a4,4,0,0,1-4,4H0Z" transform="translate(956.889 597.131) rotate(45)" fill="#1a8e5f"/>
      <rect id="Rectangle_10" data-name="Rectangle 10" width="31.194" height="31.194" transform="translate(934.831 575.073) rotate(45)" fill="#1a8e5f" opacity="0.8"/>
      <path id="Rectangle_12" data-name="Rectangle 12" d="M0,0H27.194a4,4,0,0,1,4,4V31.194H0Z" transform="translate(978.946 575.073) rotate(45)" fill="#1a8e5f" opacity="0.8"/>
      <rect id="Rectangle_8" data-name="Rectangle 8" width="31.194" height="31.194" transform="translate(956.889 553.016) rotate(45)" fill="#1a8e5f" opacity="0.6"/>
      <path id="Rectangle_5" data-name="Rectangle 5" d="M3,0H31.194V31.194H0V3A3,3,0,0,1,3,0Z" transform="translate(890.716 530.958) rotate(45)" fill="#1a8e5f" opacity="0.4"/>
      <path id="Rectangle_6" data-name="Rectangle 6" d="M3,0H31.194V31.194H0V3A3,3,0,0,1,3,0Z" transform="translate(934.831 530.958) rotate(45)" fill="#1a8e5f" opacity="0.4"/>
    </g>
    <path id="Path_232" data-name="Path 232" d="M-64.64,0h5.12l15.76-50.48L-28.08,0h5.12L-6.72-56H-11.2L-25.6-5.68-41.28-56h-5.04L-61.92-5.68-76.4-56h-4.48ZM32.48-40v9.04a19.233,19.233,0,0,0-17.2-9.92A20.658,20.658,0,0,0-5.44-20,20.658,20.658,0,0,0,15.28.88a19.233,19.233,0,0,0,17.2-9.92V0h4.08V-40ZM15.6-2.96A16.835,16.835,0,0,1-1.36-20,16.835,16.835,0,0,1,15.6-37.04,16.768,16.768,0,0,1,32.48-20,16.768,16.768,0,0,1,15.6-2.96ZM77.44-40H55.84v-2.16c0-7.76,3.76-10.88,11.92-10.88a42.448,42.448,0,0,1,7.76.72V-56a36.64,36.64,0,0,0-7.76-.88c-10.48,0-16,4.88-16,14.72V-40H44.88v3.92h6.88V0h4.08V-36.08H73.36V0h4.08Z" transform="translate(348.77 692.674)"/>
    <path id="Path_231" data-name="Path 231" d="M470.836-1332.537s18.915-21.645,40.642,0" transform="translate(226.294 2051.072) rotate(-14)" fill="none" stroke="#000" stroke-width="4"/>
  </g>
</svg>
